 http://www.torrentday.com - Your Key To The Scene.

 
http://www.torrentday.com :  Clean RAR Scene Releases!


Enjoy =)

...................................NFO:....................................

.SPRiNTER proudly presents...



A.Christmas.Wish.1950.COLORiZED.DVDRip.XviD-SPRiNTER 
http://www.imdb.com/title/tt0042524/
Subtitles: Norsk, Svenska, Dansk, Finish
Date: 2010.02


Director: Irving Pichel
Genre: Comedy | Family
Plot: A little squirrel with lots of charm accidently helps two poor,
down-but-NOT-out families overcome their obstacles.

Cast:

 Jimmy Durante ...  Mr. Louie Amendola 
 Terry Moore ...  Rosalinda Amendola 
 Tom Drake ...  Peter 'Pete' Dingle 
 Frank Orth ...  Mr. Frank Dingle 
 Sara Haden ...  Mrs.Katie Dingle 
 Queenie Smith ...  Mrs. Amendola 
 Chick Chandler ...  Phil Davis 
 Jimmy Conlin ...  Joe Mahoney 


Release notes:
Enjoy!

Stats:
Format                           : AVI
Format/Info                      : Audio Video Interleave
File size                        : 700 MiB
Duration                         : 1h 24mn
Overall bit rate                 : 1 157 Kbps
Writing application              : VirtualDubMod 1.5.10.2 (build 2542/release)
Writing library                  : VirtualDubMod build 2542/release

Video
ID                               : 0
Format                           : MPEG-4 Visual
Format profile                   : AdvancedSimple@L5
Format settings, BVOP            : Yes
Format settings, QPel            : No
Format settings, GMC             : No warppoints
Format settings, Matrix          : Default (H.263)
Codec ID                         : XVID
Codec ID/Hint                    : XviD
Duration                         : 1h 24mn
Bit rate                         : 1 022 Kbps
Width                            : 544 pixels
Height                           : 400 pixels
Display aspect ratio             : 4:3
Frame rate                       : 25.000 fps
Resolution                       : 24 bits
Colorimetry                      : 4:2:0
Scan type                        : Progressive
Bits/(Pixel*Frame)               : 0.188
Stream size                      : 618 MiB (88%)
Writing library                  : XviD 1.2.1 (UTC 2008-12-04)

Audio
ID                               : 1
Format                           : MPEG Audio
Format version                   : Version 1
Format profile                   : Layer 3
Format_Settings_Mode             : Joint stereo / MS Stereo
Codec ID                         : 55
Codec ID/Hint                    : MP3
Duration                         : 1h 24mn
Bit rate mode                    : Variable
Bit rate                         : 122 Kbps
Nominal bit rate                 : 128 Kbps
Channel(s)                       : 2 channels
Sampling rate                    : 48.0 KHz
Resolution                       : 16 bits
Stream size                      : 73.6 MiB (11%)
Alignment                        : Aligned on interleaves
Interleave, duration             : 24 ms (0.60 video frame)
Interleave, preload duration     : 360 ms
Writing library                  : LAME3.90.
Encoding settings                : -m j -V 4 -q 2 -lowpass 17.6 --abr 128